<svg xmlns="http://www.w3.org/2000/svg" viewBox="0 0 200 200"><circle cx="100" cy="100" r="100" fill="#0b1618"/><circle cx="100" cy="100" r="86" fill="none" stroke="#35d6cf" stroke-width="9"/><path fill="#eef8f7" d="M57.80107421875 146.0V144.0963037109375H69.04134765625L89.12448285758495 57.90369628906251H78.80107421875V56.0H114.1Q129.03351518929003 56.0 135.61622048527002 60.27078857421875Q142.19892578125 64.5415771484375 142.19892578125 73.96630859375Q142.19892578125 78.96532383561134 139.7601446965337 83.3025445124507Q137.32136361181736 87.63976518929005 133.07062940210102 91.04295022159815Q128.8198951923847 94.44613525390625 123.2427142316103 96.65291791617871Q117.66553327083588 98.85970057845117 111.38873351871968 99.65614789664745Q118.68197945475578 100.08628461539746 124.1302952337265 102.15841151595116Q129.57861101269722 104.23053841650486 132.5887683969736 108.07479522615671Q135.59892578125 111.91905203580856 135.59892578125 117.77752484977245Q135.59892578125 124.49752484977245 132.48132223933933 129.75257856070994Q129.36371869742868 135.00763227164745 123.92932782828807 138.63876242488624Q118.49493695914745 142.269892578125 111.4759403771162 144.1349462890625Q104.45694379508495 146.0 96.6748983323574 146.0ZM83.83919921875 144.0963037109375H96.6748983323574Q101.59690516829491 144.0963037109375 105.67419886946678 141.80037131160498Q109.75149257063865 139.50443891227246 112.73707196891307 135.46088788688184Q115.7226513671875 131.4173368614912 117.36186279296875 126.12485129207373Q119.00107421875 120.83236572265625 119.00107421875 114.8Q119.00107421875 109.46000000000001 117.33535866886378 106.40390380859375Q115.66964311897755 103.3478076171875 112.60009011417627 102.06171142578125Q109.53053710937499 100.77561523437501 105.25369140625 100.77561523437501H91.29657932698727L91.73685276448727 98.824384765625H105.08878374397754Q108.50878374397755 98.824384765625 112.29210383862257 97.01601462215186Q116.07542393326759 95.2076444786787 119.38308794319629 91.71704267203808Q122.69075195312499 88.22644086539745 124.76407204777001 83.1838832744956Q126.83739214241504 78.14132568359375 126.83739214241504 71.63369140625001Q126.83739214241504 67.59895063102246 125.5278891864419 64.51380737304689Q124.21838623046875 61.4286641150713 121.38525024414062 59.666180202066904Q118.55211425781249 57.90369628906251 113.95842285156249 57.90369628906251H103.94743608772754Z"/></svg>